<mxfile host="Electron" agent="Mozilla/5.0 (Windows NT 10.0; Win64; x64) AppleWebKit/537.36 (KHTML, like Gecko) draw.io/26.2.2 Chrome/134.0.6998.178 Electron/35.1.2 Safari/537.36" version="26.2.2">
  <diagram name="Страница — 1" id="8xOVZNWsGvuptXPXGDW2">
    <mxGraphModel dx="1283" dy="1891" grid="1" gridSize="10" guides="1" tooltips="1" connect="1" arrows="1" fold="1" page="1" pageScale="1" pageWidth="827" pageHeight="1169" math="0" shadow="0">
      <root>
        <mxCell id="0" />
        <mxCell id="1" parent="0" />
        <mxCell id="IQQhD9iPlCZPvFbMamsm-2" value="Сбор и анализ данных об отходах" style="whiteSpace=wrap;html=1;aspect=fixed;" parent="1" vertex="1">
          <mxGeometry x="390" y="610" width="100" height="100" as="geometry" />
        </mxCell>
        <mxCell id="IQQhD9iPlCZPvFbMamsm-3" value="А1" style="text;html=1;align=center;verticalAlign=middle;whiteSpace=wrap;rounded=0;" parent="1" vertex="1">
          <mxGeometry x="460" y="690" width="30" height="20" as="geometry" />
        </mxCell>
        <mxCell id="IQQhD9iPlCZPvFbMamsm-4" value="" style="endArrow=classic;html=1;rounded=0;exitX=1.001;exitY=0.189;exitDx=0;exitDy=0;entryX=-0.002;entryY=0.105;entryDx=0;entryDy=0;entryPerimeter=0;exitPerimeter=0;" parent="1" source="IQQhD9iPlCZPvFbMamsm-2" edge="1">
          <mxGeometry width="50" height="50" relative="1" as="geometry">
            <mxPoint x="490" y="636" as="sourcePoint" />
            <mxPoint x="739.8199999999999" y="795.4500000000003" as="targetPoint" />
            <Array as="points">
              <mxPoint x="670" y="630" />
              <mxPoint x="670" y="795" />
            </Array>
          </mxGeometry>
        </mxCell>
        <mxCell id="IQQhD9iPlCZPvFbMamsm-5" value="Данные от датчиков (объём, тип отходов)" style="text;strokeColor=none;fillColor=none;align=left;verticalAlign=middle;spacingLeft=4;spacingRight=4;overflow=hidden;points=[[0,0.5],[1,0.5]];portConstraint=eastwest;rotatable=0;whiteSpace=wrap;html=1;" parent="1" vertex="1">
          <mxGeometry x="260" y="600" width="130" height="30" as="geometry" />
        </mxCell>
        <mxCell id="IQQhD9iPlCZPvFbMamsm-6" value="" style="endArrow=classic;html=1;rounded=0;exitX=1;exitY=0.75;exitDx=0;exitDy=0;entryX=0.017;entryY=0.399;entryDx=0;entryDy=0;entryPerimeter=0;" parent="1" source="IQQhD9iPlCZPvFbMamsm-2" target="IQQhD9iPlCZPvFbMamsm-21" edge="1">
          <mxGeometry width="50" height="50" relative="1" as="geometry">
            <mxPoint x="610" y="720" as="sourcePoint" />
            <mxPoint x="630" y="685" as="targetPoint" />
            <Array as="points">
              <mxPoint x="630" y="685" />
              <mxPoint x="630" y="820" />
            </Array>
          </mxGeometry>
        </mxCell>
        <mxCell id="IQQhD9iPlCZPvFbMamsm-7" value="Ручной ввод детальных данных" style="text;strokeColor=none;fillColor=none;align=left;verticalAlign=middle;spacingLeft=4;spacingRight=4;overflow=hidden;points=[[0,0.5],[1,0.5]];portConstraint=eastwest;rotatable=0;whiteSpace=wrap;html=1;" parent="1" vertex="1">
          <mxGeometry x="197" y="635" width="193" height="25" as="geometry" />
        </mxCell>
        <mxCell id="IQQhD9iPlCZPvFbMamsm-8" value="" style="endArrow=classic;html=1;rounded=0;entryX=0;entryY=0.25;entryDx=0;entryDy=0;" parent="1" edge="1">
          <mxGeometry width="50" height="50" relative="1" as="geometry">
            <mxPoint x="260" y="630" as="sourcePoint" />
            <mxPoint x="390" y="630" as="targetPoint" />
          </mxGeometry>
        </mxCell>
        <mxCell id="IQQhD9iPlCZPvFbMamsm-9" value="" style="endArrow=classic;html=1;rounded=0;entryX=0;entryY=0.75;entryDx=0;entryDy=0;" parent="1" edge="1">
          <mxGeometry width="50" height="50" relative="1" as="geometry">
            <mxPoint x="200" y="660" as="sourcePoint" />
            <mxPoint x="390" y="660" as="targetPoint" />
          </mxGeometry>
        </mxCell>
        <mxCell id="IQQhD9iPlCZPvFbMamsm-10" value="Информация о заполненности контейнеров" style="text;strokeColor=none;fillColor=none;align=left;verticalAlign=middle;spacingLeft=4;spacingRight=4;overflow=hidden;points=[[0,0.5],[1,0.5]];portConstraint=eastwest;rotatable=0;whiteSpace=wrap;html=1;" parent="1" vertex="1">
          <mxGeometry x="500" y="595" width="170" height="40" as="geometry" />
        </mxCell>
        <mxCell id="IQQhD9iPlCZPvFbMamsm-11" value="Уведомление о необходимости вызова" style="text;strokeColor=none;fillColor=none;align=left;verticalAlign=middle;spacingLeft=4;spacingRight=4;overflow=hidden;points=[[0,0.5],[1,0.5]];portConstraint=eastwest;rotatable=0;whiteSpace=wrap;html=1;" parent="1" vertex="1">
          <mxGeometry x="490" y="645" width="150" height="35" as="geometry" />
        </mxCell>
        <mxCell id="IQQhD9iPlCZPvFbMamsm-12" value="" style="endArrow=classic;html=1;rounded=0;entryX=0.25;entryY=0;entryDx=0;entryDy=0;exitX=0.75;exitY=1;exitDx=0;exitDy=0;" parent="1" source="IQQhD9iPlCZPvFbMamsm-13" target="IQQhD9iPlCZPvFbMamsm-2" edge="1">
          <mxGeometry width="50" height="50" relative="1" as="geometry">
            <mxPoint x="410" y="560" as="sourcePoint" />
            <mxPoint x="660" y="600" as="targetPoint" />
          </mxGeometry>
        </mxCell>
        <mxCell id="IQQhD9iPlCZPvFbMamsm-13" value="Параметры заполненности контейнеров" style="text;html=1;align=center;verticalAlign=middle;whiteSpace=wrap;rounded=0;" parent="1" vertex="1">
          <mxGeometry x="333" y="510" width="110" height="50" as="geometry" />
        </mxCell>
        <mxCell id="IQQhD9iPlCZPvFbMamsm-14" value="Типы отходов, которые, можно утилизоровать вместе" style="text;html=1;align=center;verticalAlign=middle;whiteSpace=wrap;rounded=0;" parent="1" vertex="1">
          <mxGeometry x="431" y="510" width="139" height="50" as="geometry" />
        </mxCell>
        <mxCell id="IQQhD9iPlCZPvFbMamsm-15" value="" style="endArrow=classic;html=1;rounded=0;entryX=0.75;entryY=0;entryDx=0;entryDy=0;exitX=0.25;exitY=1;exitDx=0;exitDy=0;" parent="1" source="IQQhD9iPlCZPvFbMamsm-14" target="IQQhD9iPlCZPvFbMamsm-2" edge="1">
          <mxGeometry width="50" height="50" relative="1" as="geometry">
            <mxPoint x="610" y="650" as="sourcePoint" />
            <mxPoint x="660" y="600" as="targetPoint" />
          </mxGeometry>
        </mxCell>
        <mxCell id="IQQhD9iPlCZPvFbMamsm-17" value="" style="endArrow=classic;html=1;rounded=0;entryX=0.25;entryY=1;entryDx=0;entryDy=0;exitX=0.75;exitY=0;exitDx=0;exitDy=0;" parent="1" source="IQQhD9iPlCZPvFbMamsm-18" target="IQQhD9iPlCZPvFbMamsm-2" edge="1">
          <mxGeometry width="50" height="50" relative="1" as="geometry">
            <mxPoint x="415" y="750" as="sourcePoint" />
            <mxPoint x="660" y="740" as="targetPoint" />
          </mxGeometry>
        </mxCell>
        <mxCell id="IQQhD9iPlCZPvFbMamsm-18" value="Датчики на контейнерах" style="text;html=1;align=center;verticalAlign=middle;whiteSpace=wrap;rounded=0;" parent="1" vertex="1">
          <mxGeometry x="354" y="750" width="80" height="30" as="geometry" />
        </mxCell>
        <mxCell id="IQQhD9iPlCZPvFbMamsm-19" value="" style="endArrow=classic;html=1;rounded=0;entryX=0.75;entryY=1;entryDx=0;entryDy=0;exitX=0.25;exitY=0;exitDx=0;exitDy=0;" parent="1" source="IQQhD9iPlCZPvFbMamsm-20" target="IQQhD9iPlCZPvFbMamsm-2" edge="1">
          <mxGeometry width="50" height="50" relative="1" as="geometry">
            <mxPoint x="470" y="750" as="sourcePoint" />
            <mxPoint x="660" y="740" as="targetPoint" />
          </mxGeometry>
        </mxCell>
        <mxCell id="IQQhD9iPlCZPvFbMamsm-20" value="ПО для сбора и анализа данных" style="text;html=1;align=center;verticalAlign=middle;whiteSpace=wrap;rounded=0;" parent="1" vertex="1">
          <mxGeometry x="437.5" y="752" width="110" height="40" as="geometry" />
        </mxCell>
        <mxCell id="IQQhD9iPlCZPvFbMamsm-21" value="Сортировка и подготовка отходов" style="whiteSpace=wrap;html=1;aspect=fixed;" parent="1" vertex="1">
          <mxGeometry x="740" y="785" width="90" height="90" as="geometry" />
        </mxCell>
        <mxCell id="IQQhD9iPlCZPvFbMamsm-22" value="А2" style="text;html=1;align=center;verticalAlign=middle;whiteSpace=wrap;rounded=0;" parent="1" vertex="1">
          <mxGeometry x="800" y="855" width="30" height="20" as="geometry" />
        </mxCell>
        <mxCell id="IQQhD9iPlCZPvFbMamsm-25" value="Данные о типах отходов" style="text;html=1;align=center;verticalAlign=middle;whiteSpace=wrap;rounded=0;" parent="1" vertex="1">
          <mxGeometry x="637" y="852" width="100" height="30" as="geometry" />
        </mxCell>
        <mxCell id="IQQhD9iPlCZPvFbMamsm-26" value="" style="endArrow=classic;html=1;rounded=0;entryX=0;entryY=0.75;entryDx=0;entryDy=0;exitX=0;exitY=0;exitDx=0;exitDy=0;" parent="1" source="IQQhD9iPlCZPvFbMamsm-25" target="IQQhD9iPlCZPvFbMamsm-21" edge="1">
          <mxGeometry width="50" height="50" relative="1" as="geometry">
            <mxPoint x="680" y="820" as="sourcePoint" />
            <mxPoint x="730" y="770" as="targetPoint" />
          </mxGeometry>
        </mxCell>
        <mxCell id="IQQhD9iPlCZPvFbMamsm-27" value="Подтверждение об отсоритированных отходах&amp;nbsp;" style="text;html=1;align=center;verticalAlign=middle;whiteSpace=wrap;rounded=0;" parent="1" vertex="1">
          <mxGeometry x="830" y="785" width="270" height="25" as="geometry" />
        </mxCell>
        <mxCell id="IQQhD9iPlCZPvFbMamsm-28" value="" style="endArrow=classic;html=1;rounded=0;exitX=0.99;exitY=0.381;exitDx=0;exitDy=0;exitPerimeter=0;entryX=0.032;entryY=0.161;entryDx=0;entryDy=0;entryPerimeter=0;" parent="1" target="IQQhD9iPlCZPvFbMamsm-40" edge="1">
          <mxGeometry width="50" height="50" relative="1" as="geometry">
            <mxPoint x="829.0999999999999" y="810.0000000000005" as="sourcePoint" />
            <mxPoint x="1110" y="930.6700000000001" as="targetPoint" />
            <Array as="points">
              <mxPoint x="1100" y="811" />
              <mxPoint x="1100" y="940" />
            </Array>
          </mxGeometry>
        </mxCell>
        <mxCell id="IQQhD9iPlCZPvFbMamsm-30" value="Подтверждение о готовности контейнеров" style="text;html=1;align=center;verticalAlign=middle;whiteSpace=wrap;rounded=0;" parent="1" vertex="1">
          <mxGeometry x="830" y="816.25" width="260" height="15" as="geometry" />
        </mxCell>
        <mxCell id="IQQhD9iPlCZPvFbMamsm-31" value="" style="endArrow=classic;html=1;rounded=0;exitX=1.022;exitY=0.602;exitDx=0;exitDy=0;entryX=0.011;entryY=0.374;entryDx=0;entryDy=0;entryPerimeter=0;exitPerimeter=0;" parent="1" source="IQQhD9iPlCZPvFbMamsm-21" target="IQQhD9iPlCZPvFbMamsm-40" edge="1">
          <mxGeometry width="50" height="50" relative="1" as="geometry">
            <mxPoint x="770" y="890" as="sourcePoint" />
            <mxPoint x="1030" y="855" as="targetPoint" />
            <Array as="points">
              <mxPoint x="1080" y="840" />
              <mxPoint x="1080" y="960" />
            </Array>
          </mxGeometry>
        </mxCell>
        <mxCell id="IQQhD9iPlCZPvFbMamsm-32" value="Правила соритировки отходов" style="text;html=1;align=center;verticalAlign=middle;whiteSpace=wrap;rounded=0;" parent="1" vertex="1">
          <mxGeometry x="703" y="690" width="80" height="50" as="geometry" />
        </mxCell>
        <mxCell id="IQQhD9iPlCZPvFbMamsm-33" value="Внутринние инструкции для сотрудников" style="text;html=1;align=center;verticalAlign=middle;whiteSpace=wrap;rounded=0;" parent="1" vertex="1">
          <mxGeometry x="791" y="685" width="90" height="55" as="geometry" />
        </mxCell>
        <mxCell id="IQQhD9iPlCZPvFbMamsm-34" value="" style="endArrow=classic;html=1;rounded=0;entryX=0.81;entryY=0.021;entryDx=0;entryDy=0;exitX=0.25;exitY=1;exitDx=0;exitDy=0;entryPerimeter=0;" parent="1" source="IQQhD9iPlCZPvFbMamsm-33" target="IQQhD9iPlCZPvFbMamsm-21" edge="1">
          <mxGeometry width="50" height="50" relative="1" as="geometry">
            <mxPoint x="770" y="760" as="sourcePoint" />
            <mxPoint x="820" y="710" as="targetPoint" />
            <Array as="points" />
          </mxGeometry>
        </mxCell>
        <mxCell id="IQQhD9iPlCZPvFbMamsm-35" value="" style="endArrow=classic;html=1;rounded=0;exitX=0.75;exitY=1;exitDx=0;exitDy=0;entryX=0.25;entryY=0;entryDx=0;entryDy=0;" parent="1" source="IQQhD9iPlCZPvFbMamsm-32" target="IQQhD9iPlCZPvFbMamsm-21" edge="1">
          <mxGeometry width="50" height="50" relative="1" as="geometry">
            <mxPoint x="770" y="760" as="sourcePoint" />
            <mxPoint x="820" y="710" as="targetPoint" />
          </mxGeometry>
        </mxCell>
        <mxCell id="IQQhD9iPlCZPvFbMamsm-36" value="Мобильное приложение для уведомления сотрудников" style="text;html=1;align=center;verticalAlign=middle;whiteSpace=wrap;rounded=0;" parent="1" vertex="1">
          <mxGeometry x="687" y="919" width="100" height="60" as="geometry" />
        </mxCell>
        <mxCell id="IQQhD9iPlCZPvFbMamsm-37" value="Контейнеры с маркировкой для разных типов отходов" style="text;html=1;align=center;verticalAlign=middle;whiteSpace=wrap;rounded=0;" parent="1" vertex="1">
          <mxGeometry x="787" y="924" width="110" height="60" as="geometry" />
        </mxCell>
        <mxCell id="IQQhD9iPlCZPvFbMamsm-38" value="" style="endArrow=classic;html=1;rounded=0;entryX=0.25;entryY=1;entryDx=0;entryDy=0;exitX=0.75;exitY=0;exitDx=0;exitDy=0;" parent="1" source="IQQhD9iPlCZPvFbMamsm-36" target="IQQhD9iPlCZPvFbMamsm-21" edge="1">
          <mxGeometry width="50" height="50" relative="1" as="geometry">
            <mxPoint x="770" y="960" as="sourcePoint" />
            <mxPoint x="820" y="910" as="targetPoint" />
          </mxGeometry>
        </mxCell>
        <mxCell id="IQQhD9iPlCZPvFbMamsm-39" value="" style="endArrow=classic;html=1;rounded=0;entryX=0.5;entryY=1;entryDx=0;entryDy=0;exitX=0.25;exitY=0;exitDx=0;exitDy=0;" parent="1" source="IQQhD9iPlCZPvFbMamsm-37" target="IQQhD9iPlCZPvFbMamsm-22" edge="1">
          <mxGeometry width="50" height="50" relative="1" as="geometry">
            <mxPoint x="770" y="960" as="sourcePoint" />
            <mxPoint x="820" y="910" as="targetPoint" />
          </mxGeometry>
        </mxCell>
        <mxCell id="IQQhD9iPlCZPvFbMamsm-40" value="Организвция вызова и отчётность" style="whiteSpace=wrap;html=1;aspect=fixed;" parent="1" vertex="1">
          <mxGeometry x="1227" y="924.75" width="95" height="95" as="geometry" />
        </mxCell>
        <mxCell id="IQQhD9iPlCZPvFbMamsm-41" value="А3" style="text;html=1;align=center;verticalAlign=middle;whiteSpace=wrap;rounded=0;" parent="1" vertex="1">
          <mxGeometry x="1292" y="993.75" width="30" height="26" as="geometry" />
        </mxCell>
        <mxCell id="IQQhD9iPlCZPvFbMamsm-42" value="График вызова отходов" style="text;html=1;align=center;verticalAlign=middle;whiteSpace=wrap;rounded=0;" parent="1" vertex="1">
          <mxGeometry x="1067" y="971.98" width="160" height="21" as="geometry" />
        </mxCell>
        <mxCell id="IQQhD9iPlCZPvFbMamsm-43" value="" style="endArrow=classic;html=1;rounded=0;exitX=0;exitY=1;exitDx=0;exitDy=0;" parent="1" source="IQQhD9iPlCZPvFbMamsm-42" edge="1">
          <mxGeometry width="50" height="50" relative="1" as="geometry">
            <mxPoint x="1087" y="993.98" as="sourcePoint" />
            <mxPoint x="1227" y="992.98" as="targetPoint" />
          </mxGeometry>
        </mxCell>
        <mxCell id="IQQhD9iPlCZPvFbMamsm-44" value="Нормативыне требования по отчётности" style="text;html=1;align=center;verticalAlign=middle;whiteSpace=wrap;rounded=0;" parent="1" vertex="1">
          <mxGeometry x="1184" y="831.25" width="90" height="55" as="geometry" />
        </mxCell>
        <mxCell id="IQQhD9iPlCZPvFbMamsm-45" value="Приоритетность вызова определённых типов отходов" style="text;html=1;align=center;verticalAlign=middle;whiteSpace=wrap;rounded=0;" parent="1" vertex="1">
          <mxGeometry x="1277" y="835.75" width="132" height="48" as="geometry" />
        </mxCell>
        <mxCell id="IQQhD9iPlCZPvFbMamsm-46" value="" style="endArrow=classic;html=1;rounded=0;entryX=0.87;entryY=0.001;entryDx=0;entryDy=0;entryPerimeter=0;exitX=0.25;exitY=1;exitDx=0;exitDy=0;" parent="1" source="IQQhD9iPlCZPvFbMamsm-45" target="IQQhD9iPlCZPvFbMamsm-40" edge="1">
          <mxGeometry width="50" height="50" relative="1" as="geometry">
            <mxPoint x="1337" y="980.75" as="sourcePoint" />
            <mxPoint x="1387" y="930.75" as="targetPoint" />
          </mxGeometry>
        </mxCell>
        <mxCell id="IQQhD9iPlCZPvFbMamsm-47" value="" style="endArrow=classic;html=1;rounded=0;entryX=0.25;entryY=0;entryDx=0;entryDy=0;exitX=0.75;exitY=1;exitDx=0;exitDy=0;" parent="1" source="IQQhD9iPlCZPvFbMamsm-44" target="IQQhD9iPlCZPvFbMamsm-40" edge="1">
          <mxGeometry width="50" height="50" relative="1" as="geometry">
            <mxPoint x="1337" y="980.75" as="sourcePoint" />
            <mxPoint x="1307" y="910.75" as="targetPoint" />
          </mxGeometry>
        </mxCell>
        <mxCell id="IQQhD9iPlCZPvFbMamsm-48" value="ПО для формирования отчётов" style="text;html=1;align=center;verticalAlign=middle;whiteSpace=wrap;rounded=0;" parent="1" vertex="1">
          <mxGeometry x="1183" y="1059.75" width="90" height="50" as="geometry" />
        </mxCell>
        <mxCell id="IQQhD9iPlCZPvFbMamsm-49" value="База даных для хранения информации о вызовах и отходах" style="text;html=1;align=center;verticalAlign=middle;whiteSpace=wrap;rounded=0;" parent="1" vertex="1">
          <mxGeometry x="1280" y="1063.75" width="110" height="70" as="geometry" />
        </mxCell>
        <mxCell id="IQQhD9iPlCZPvFbMamsm-50" value="" style="endArrow=classic;html=1;rounded=0;entryX=0.25;entryY=1;entryDx=0;entryDy=0;exitX=0.75;exitY=0;exitDx=0;exitDy=0;" parent="1" source="IQQhD9iPlCZPvFbMamsm-48" target="IQQhD9iPlCZPvFbMamsm-40" edge="1">
          <mxGeometry width="50" height="50" relative="1" as="geometry">
            <mxPoint x="1337" y="1050.75" as="sourcePoint" />
            <mxPoint x="1387" y="1000.75" as="targetPoint" />
          </mxGeometry>
        </mxCell>
        <mxCell id="IQQhD9iPlCZPvFbMamsm-51" value="" style="endArrow=classic;html=1;rounded=0;entryX=0.5;entryY=1;entryDx=0;entryDy=0;exitX=0.25;exitY=0;exitDx=0;exitDy=0;" parent="1" source="IQQhD9iPlCZPvFbMamsm-49" target="IQQhD9iPlCZPvFbMamsm-41" edge="1">
          <mxGeometry width="50" height="50" relative="1" as="geometry">
            <mxPoint x="1337" y="1050.75" as="sourcePoint" />
            <mxPoint x="1387" y="1000.75" as="targetPoint" />
          </mxGeometry>
        </mxCell>
        <mxCell id="IQQhD9iPlCZPvFbMamsm-52" value="Отчётность и созданные заявки на вызов отходов" style="text;html=1;align=center;verticalAlign=middle;whiteSpace=wrap;rounded=0;" parent="1" vertex="1">
          <mxGeometry x="1322" y="919" width="160" height="30.5" as="geometry" />
        </mxCell>
        <mxCell id="IQQhD9iPlCZPvFbMamsm-53" value="" style="endArrow=classic;html=1;rounded=0;exitX=0.992;exitY=0.35;exitDx=0;exitDy=0;exitPerimeter=0;" parent="1" edge="1">
          <mxGeometry width="50" height="50" relative="1" as="geometry">
            <mxPoint x="1321.9999999999998" y="948.87" as="sourcePoint" />
            <mxPoint x="1507.76" y="948.62" as="targetPoint" />
            <Array as="points">
              <mxPoint x="1417.76" y="948.62" />
            </Array>
          </mxGeometry>
        </mxCell>
        <mxCell id="IQQhD9iPlCZPvFbMamsm-54" value="Уведомление сотрудников о завершении вызова" style="text;html=1;align=center;verticalAlign=middle;whiteSpace=wrap;rounded=0;" parent="1" vertex="1">
          <mxGeometry x="1322" y="951.75" width="168" height="28" as="geometry" />
        </mxCell>
        <mxCell id="IQQhD9iPlCZPvFbMamsm-55" value="" style="endArrow=classic;html=1;rounded=0;exitX=1;exitY=0.25;exitDx=0;exitDy=0;" parent="1" edge="1">
          <mxGeometry width="50" height="50" relative="1" as="geometry">
            <mxPoint x="1322" y="982.87" as="sourcePoint" />
            <mxPoint x="1507" y="983.37" as="targetPoint" />
          </mxGeometry>
        </mxCell>
        <mxCell id="IQQhD9iPlCZPvFbMamsm-56" value="Управление утилизацией отходов" style="whiteSpace=wrap;html=1;aspect=fixed;" parent="1" vertex="1">
          <mxGeometry x="880" y="160" width="100" height="100" as="geometry" />
        </mxCell>
        <mxCell id="IQQhD9iPlCZPvFbMamsm-57" value="А0" style="text;html=1;align=center;verticalAlign=middle;whiteSpace=wrap;rounded=0;" parent="1" vertex="1">
          <mxGeometry x="960" y="240" width="20" height="20" as="geometry" />
        </mxCell>
        <mxCell id="IQQhD9iPlCZPvFbMamsm-58" value="Параметры заполненности контейнеров" style="text;html=1;align=center;verticalAlign=middle;whiteSpace=wrap;rounded=0;" parent="1" vertex="1">
          <mxGeometry x="1003" y="80" width="160" height="30" as="geometry" />
        </mxCell>
        <mxCell id="IQQhD9iPlCZPvFbMamsm-59" value="Типы отходов, которые, можно утилизоровать вместе" style="text;html=1;align=center;verticalAlign=middle;whiteSpace=wrap;rounded=0;" parent="1" vertex="1">
          <mxGeometry x="1000" y="110" width="170" height="30" as="geometry" />
        </mxCell>
        <mxCell id="IQQhD9iPlCZPvFbMamsm-60" value="" style="endArrow=classic;html=1;rounded=0;entryX=0.7;entryY=0;entryDx=0;entryDy=0;exitX=0;exitY=1;exitDx=0;exitDy=0;entryPerimeter=0;" parent="1" source="IQQhD9iPlCZPvFbMamsm-58" target="IQQhD9iPlCZPvFbMamsm-56" edge="1">
          <mxGeometry width="50" height="50" relative="1" as="geometry">
            <mxPoint x="877" y="110" as="sourcePoint" />
            <mxPoint x="882" y="160" as="targetPoint" />
            <Array as="points">
              <mxPoint x="950" y="110" />
            </Array>
          </mxGeometry>
        </mxCell>
        <mxCell id="IQQhD9iPlCZPvFbMamsm-61" value="" style="endArrow=classic;html=1;rounded=0;entryX=0.802;entryY=0.001;entryDx=0;entryDy=0;exitX=0;exitY=1;exitDx=0;exitDy=0;entryPerimeter=0;" parent="1" source="IQQhD9iPlCZPvFbMamsm-59" target="IQQhD9iPlCZPvFbMamsm-56" edge="1">
          <mxGeometry width="50" height="50" relative="1" as="geometry">
            <mxPoint x="1077" y="200" as="sourcePoint" />
            <mxPoint x="932" y="160" as="targetPoint" />
            <Array as="points">
              <mxPoint x="960" y="140" />
            </Array>
          </mxGeometry>
        </mxCell>
        <mxCell id="IQQhD9iPlCZPvFbMamsm-62" value="Правила соритировки отходов" style="text;html=1;align=center;verticalAlign=middle;whiteSpace=wrap;rounded=0;" parent="1" vertex="1">
          <mxGeometry x="1003" y="20" width="137" height="30" as="geometry" />
        </mxCell>
        <mxCell id="IQQhD9iPlCZPvFbMamsm-63" value="Внутренние инструкции для сотрудников" style="text;html=1;align=center;verticalAlign=middle;whiteSpace=wrap;rounded=0;" parent="1" vertex="1">
          <mxGeometry x="1003" y="50" width="147" height="30" as="geometry" />
        </mxCell>
        <mxCell id="IQQhD9iPlCZPvFbMamsm-64" value="" style="endArrow=classic;html=1;rounded=0;exitX=0;exitY=1;exitDx=0;exitDy=0;entryX=0.5;entryY=0;entryDx=0;entryDy=0;" parent="1" source="IQQhD9iPlCZPvFbMamsm-62" target="IQQhD9iPlCZPvFbMamsm-56" edge="1">
          <mxGeometry width="50" height="50" relative="1" as="geometry">
            <mxPoint x="874" y="85" as="sourcePoint" />
            <mxPoint x="867" y="110" as="targetPoint" />
            <Array as="points">
              <mxPoint x="930" y="50" />
            </Array>
          </mxGeometry>
        </mxCell>
        <mxCell id="IQQhD9iPlCZPvFbMamsm-65" value="" style="endArrow=classic;html=1;rounded=0;entryX=0.597;entryY=-0.006;entryDx=0;entryDy=0;exitX=0;exitY=1;exitDx=0;exitDy=0;entryPerimeter=0;" parent="1" source="IQQhD9iPlCZPvFbMamsm-63" target="IQQhD9iPlCZPvFbMamsm-56" edge="1">
          <mxGeometry width="50" height="50" relative="1" as="geometry">
            <mxPoint x="874" y="85" as="sourcePoint" />
            <mxPoint x="912" y="110" as="targetPoint" />
            <Array as="points">
              <mxPoint x="940" y="80" />
            </Array>
          </mxGeometry>
        </mxCell>
        <mxCell id="IQQhD9iPlCZPvFbMamsm-66" value="Нормативыне требования по отчётности" style="text;html=1;align=center;verticalAlign=middle;whiteSpace=wrap;rounded=0;" parent="1" vertex="1">
          <mxGeometry x="1000" y="-50" width="150" height="35" as="geometry" />
        </mxCell>
        <mxCell id="IQQhD9iPlCZPvFbMamsm-67" value="Приоритетность вызова определённых типов отходов" style="text;html=1;align=center;verticalAlign=middle;whiteSpace=wrap;rounded=0;" parent="1" vertex="1">
          <mxGeometry x="1000" y="-18" width="166" height="38" as="geometry" />
        </mxCell>
        <mxCell id="IQQhD9iPlCZPvFbMamsm-68" value="" style="endArrow=classic;html=1;rounded=0;entryX=0.25;entryY=0;entryDx=0;entryDy=0;" parent="1" target="IQQhD9iPlCZPvFbMamsm-56" edge="1">
          <mxGeometry width="50" height="50" relative="1" as="geometry">
            <mxPoint x="1000" y="-20" as="sourcePoint" />
            <mxPoint x="930" y="90" as="targetPoint" />
            <Array as="points">
              <mxPoint x="905" y="-20" />
            </Array>
          </mxGeometry>
        </mxCell>
        <mxCell id="IQQhD9iPlCZPvFbMamsm-69" value="" style="endArrow=classic;html=1;rounded=0;entryX=0.379;entryY=-0.002;entryDx=0;entryDy=0;entryPerimeter=0;exitX=0;exitY=1;exitDx=0;exitDy=0;" parent="1" source="IQQhD9iPlCZPvFbMamsm-67" target="IQQhD9iPlCZPvFbMamsm-56" edge="1">
          <mxGeometry width="50" height="50" relative="1" as="geometry">
            <mxPoint x="804" y="352.75" as="sourcePoint" />
            <mxPoint x="777" y="296.75" as="targetPoint" />
            <Array as="points">
              <mxPoint x="920" y="20" />
            </Array>
          </mxGeometry>
        </mxCell>
        <mxCell id="IQQhD9iPlCZPvFbMamsm-70" value="Датчики на контейнерах" style="text;html=1;align=center;verticalAlign=middle;whiteSpace=wrap;rounded=0;" parent="1" vertex="1">
          <mxGeometry x="990" y="280" width="140" height="20" as="geometry" />
        </mxCell>
        <mxCell id="IQQhD9iPlCZPvFbMamsm-71" value="" style="endArrow=classic;html=1;rounded=0;entryX=0;entryY=1;entryDx=0;entryDy=0;exitX=0;exitY=0;exitDx=0;exitDy=0;" parent="1" source="IQQhD9iPlCZPvFbMamsm-70" target="IQQhD9iPlCZPvFbMamsm-57" edge="1">
          <mxGeometry width="50" height="50" relative="1" as="geometry">
            <mxPoint x="1039.25" y="290" as="sourcePoint" />
            <mxPoint x="1039.25" y="250" as="targetPoint" />
            <Array as="points">
              <mxPoint x="960" y="280" />
            </Array>
          </mxGeometry>
        </mxCell>
        <mxCell id="IQQhD9iPlCZPvFbMamsm-72" value="ПО для сбора и анализа данных" style="text;html=1;align=center;verticalAlign=middle;whiteSpace=wrap;rounded=0;" parent="1" vertex="1">
          <mxGeometry x="990" y="300" width="100" height="30" as="geometry" />
        </mxCell>
        <mxCell id="IQQhD9iPlCZPvFbMamsm-73" value="" style="endArrow=classic;html=1;rounded=0;entryX=0.691;entryY=1.003;entryDx=0;entryDy=0;exitX=0;exitY=0;exitDx=0;exitDy=0;entryPerimeter=0;" parent="1" source="IQQhD9iPlCZPvFbMamsm-72" target="IQQhD9iPlCZPvFbMamsm-56" edge="1">
          <mxGeometry width="50" height="50" relative="1" as="geometry">
            <mxPoint x="1094.25" y="290" as="sourcePoint" />
            <mxPoint x="1089.25" y="250" as="targetPoint" />
            <Array as="points">
              <mxPoint x="950" y="300" />
            </Array>
          </mxGeometry>
        </mxCell>
        <mxCell id="IQQhD9iPlCZPvFbMamsm-83" style="edgeStyle=orthogonalEdgeStyle;rounded=0;orthogonalLoop=1;jettySize=auto;html=1;exitX=0;exitY=1;exitDx=0;exitDy=0;entryX=0.565;entryY=0.99;entryDx=0;entryDy=0;entryPerimeter=0;" parent="1" edge="1">
          <mxGeometry relative="1" as="geometry">
            <mxPoint x="938" y="260" as="targetPoint" />
            <mxPoint x="991.5" y="331" as="sourcePoint" />
            <Array as="points">
              <mxPoint x="938.5" y="331" />
            </Array>
          </mxGeometry>
        </mxCell>
        <mxCell id="IQQhD9iPlCZPvFbMamsm-74" value="Мобильное приложение для уведомления сотрудников" style="text;html=1;align=center;verticalAlign=middle;whiteSpace=wrap;rounded=0;" parent="1" vertex="1">
          <mxGeometry x="991.5" y="330" width="170" height="30" as="geometry" />
        </mxCell>
        <mxCell id="IQQhD9iPlCZPvFbMamsm-76" value="" style="endArrow=classic;html=1;rounded=0;exitX=0;exitY=0.25;exitDx=0;exitDy=0;entryX=0.401;entryY=1.019;entryDx=0;entryDy=0;entryPerimeter=0;" parent="1" source="IQQhD9iPlCZPvFbMamsm-77" target="IQQhD9iPlCZPvFbMamsm-56" edge="1">
          <mxGeometry width="50" height="50" relative="1" as="geometry">
            <mxPoint x="1073" y="435" as="sourcePoint" />
            <mxPoint x="900" y="330" as="targetPoint" />
            <Array as="points">
              <mxPoint x="920" y="368" />
            </Array>
          </mxGeometry>
        </mxCell>
        <mxCell id="IQQhD9iPlCZPvFbMamsm-77" value="Контейнеры с маркировкой для разных типов отходов" style="text;html=1;align=center;verticalAlign=middle;whiteSpace=wrap;rounded=0;" parent="1" vertex="1">
          <mxGeometry x="1000" y="360" width="160" height="30" as="geometry" />
        </mxCell>
        <mxCell id="IQQhD9iPlCZPvFbMamsm-78" value="ПО для формирования отчётов" style="text;html=1;align=center;verticalAlign=middle;whiteSpace=wrap;rounded=0;" parent="1" vertex="1">
          <mxGeometry x="1000" y="390" width="183" height="20" as="geometry" />
        </mxCell>
        <mxCell id="IQQhD9iPlCZPvFbMamsm-79" value="" style="endArrow=classic;html=1;rounded=0;exitX=0;exitY=0.5;exitDx=0;exitDy=0;entryX=0.293;entryY=1.006;entryDx=0;entryDy=0;entryPerimeter=0;" parent="1" source="IQQhD9iPlCZPvFbMamsm-78" target="IQQhD9iPlCZPvFbMamsm-56" edge="1">
          <mxGeometry width="50" height="50" relative="1" as="geometry">
            <mxPoint x="1174" y="491" as="sourcePoint" />
            <mxPoint x="870" y="410" as="targetPoint" />
            <Array as="points">
              <mxPoint x="909" y="400" />
            </Array>
          </mxGeometry>
        </mxCell>
        <mxCell id="IQQhD9iPlCZPvFbMamsm-80" value="База даных для хранения информации о вызовах и отходах" style="text;html=1;align=center;verticalAlign=middle;whiteSpace=wrap;rounded=0;" parent="1" vertex="1">
          <mxGeometry x="1000" y="410" width="200" height="30" as="geometry" />
        </mxCell>
        <mxCell id="IQQhD9iPlCZPvFbMamsm-81" value="" style="endArrow=classic;html=1;rounded=0;exitX=0;exitY=0.25;exitDx=0;exitDy=0;entryX=0.2;entryY=1;entryDx=0;entryDy=0;entryPerimeter=0;" parent="1" source="IQQhD9iPlCZPvFbMamsm-80" target="IQQhD9iPlCZPvFbMamsm-56" edge="1">
          <mxGeometry width="50" height="50" relative="1" as="geometry">
            <mxPoint x="1174" y="491" as="sourcePoint" />
            <mxPoint x="850" y="400" as="targetPoint" />
            <Array as="points">
              <mxPoint x="900" y="418" />
            </Array>
          </mxGeometry>
        </mxCell>
        <mxCell id="IQQhD9iPlCZPvFbMamsm-84" value="Данные от датчиков (объём, тип отходов)" style="text;strokeColor=none;fillColor=none;align=left;verticalAlign=middle;spacingLeft=4;spacingRight=4;overflow=hidden;points=[[0,0.5],[1,0.5]];portConstraint=eastwest;rotatable=0;whiteSpace=wrap;html=1;" parent="1" vertex="1">
          <mxGeometry x="630" y="160" width="250" height="20" as="geometry" />
        </mxCell>
        <mxCell id="IQQhD9iPlCZPvFbMamsm-85" value="" style="endArrow=classic;html=1;rounded=0;entryX=-0.012;entryY=0.337;entryDx=0;entryDy=0;entryPerimeter=0;" parent="1" edge="1">
          <mxGeometry width="50" height="50" relative="1" as="geometry">
            <mxPoint x="611.2" y="180.3" as="sourcePoint" />
            <mxPoint x="880" y="180.00000000000006" as="targetPoint" />
          </mxGeometry>
        </mxCell>
        <mxCell id="IQQhD9iPlCZPvFbMamsm-86" value="Ручной ввод детальных данных" style="text;strokeColor=none;fillColor=none;align=left;verticalAlign=middle;spacingLeft=4;spacingRight=4;overflow=hidden;points=[[0,0.5],[1,0.5]];portConstraint=eastwest;rotatable=0;whiteSpace=wrap;html=1;" parent="1" vertex="1">
          <mxGeometry x="680" y="184.5" width="200" height="25.5" as="geometry" />
        </mxCell>
        <mxCell id="IQQhD9iPlCZPvFbMamsm-87" value="" style="endArrow=classic;html=1;rounded=0;entryX=-0.006;entryY=0.856;entryDx=0;entryDy=0;entryPerimeter=0;" parent="1" edge="1">
          <mxGeometry width="50" height="50" relative="1" as="geometry">
            <mxPoint x="679.3000000000001" y="208.31" as="sourcePoint" />
            <mxPoint x="880.6999999999999" y="208.91000000000014" as="targetPoint" />
          </mxGeometry>
        </mxCell>
        <mxCell id="IQQhD9iPlCZPvFbMamsm-88" value="Автоматически созданные заявки на вызов отходов" style="text;html=1;align=center;verticalAlign=middle;whiteSpace=wrap;rounded=0;" parent="1" vertex="1">
          <mxGeometry x="980" y="160" width="304" height="16" as="geometry" />
        </mxCell>
        <mxCell id="IQQhD9iPlCZPvFbMamsm-89" value="" style="endArrow=classic;html=1;rounded=0;exitX=0.992;exitY=0.35;exitDx=0;exitDy=0;exitPerimeter=0;" parent="1" edge="1">
          <mxGeometry width="50" height="50" relative="1" as="geometry">
            <mxPoint x="980" y="179.70999999999995" as="sourcePoint" />
            <mxPoint x="1290" y="180" as="targetPoint" />
          </mxGeometry>
        </mxCell>
        <mxCell id="IQQhD9iPlCZPvFbMamsm-90" value="Уведомление сотрудников о завершении вызова" style="text;html=1;align=center;verticalAlign=middle;whiteSpace=wrap;rounded=0;" parent="1" vertex="1">
          <mxGeometry x="980" y="190" width="294" height="19" as="geometry" />
        </mxCell>
        <mxCell id="IQQhD9iPlCZPvFbMamsm-91" value="" style="endArrow=classic;html=1;rounded=0;exitX=1;exitY=0.25;exitDx=0;exitDy=0;" parent="1" edge="1">
          <mxGeometry width="50" height="50" relative="1" as="geometry">
            <mxPoint x="981" y="209.70999999999995" as="sourcePoint" />
            <mxPoint x="1290" y="210" as="targetPoint" />
          </mxGeometry>
        </mxCell>
        <mxCell id="IQQhD9iPlCZPvFbMamsm-92" value="Данные о типах отходов" style="text;html=1;align=center;verticalAlign=middle;whiteSpace=wrap;rounded=0;" parent="1" vertex="1">
          <mxGeometry x="730" y="240" width="146" height="15" as="geometry" />
        </mxCell>
        <mxCell id="IQQhD9iPlCZPvFbMamsm-93" value="" style="endArrow=classic;html=1;rounded=0;entryX=-0.028;entryY=0.974;entryDx=0;entryDy=0;entryPerimeter=0;" parent="1" target="IQQhD9iPlCZPvFbMamsm-56" edge="1">
          <mxGeometry width="50" height="50" relative="1" as="geometry">
            <mxPoint x="700" y="257" as="sourcePoint" />
            <mxPoint x="813" y="381" as="targetPoint" />
          </mxGeometry>
        </mxCell>
        <mxCell id="IQQhD9iPlCZPvFbMamsm-94" value="" style="endArrow=classic;html=1;rounded=0;" parent="1" edge="1">
          <mxGeometry width="50" height="50" relative="1" as="geometry">
            <mxPoint x="674" y="230.57" as="sourcePoint" />
            <mxPoint x="880" y="230" as="targetPoint" />
          </mxGeometry>
        </mxCell>
        <mxCell id="IQQhD9iPlCZPvFbMamsm-95" value="График вызова отходов" style="text;html=1;align=center;verticalAlign=middle;whiteSpace=wrap;rounded=0;" parent="1" vertex="1">
          <mxGeometry x="716" y="218.43" width="160" height="11.57" as="geometry" />
        </mxCell>
        <mxCell id="IQQhD9iPlCZPvFbMamsm-96" value="Утилизированные отходы" style="text;html=1;align=center;verticalAlign=middle;whiteSpace=wrap;rounded=0;" parent="1" vertex="1">
          <mxGeometry x="980" y="218.43" width="165" height="20" as="geometry" />
        </mxCell>
        <mxCell id="IQQhD9iPlCZPvFbMamsm-97" value="" style="endArrow=classic;html=1;rounded=0;exitX=0;exitY=1;exitDx=0;exitDy=0;" parent="1" source="IQQhD9iPlCZPvFbMamsm-96" edge="1">
          <mxGeometry width="50" height="50" relative="1" as="geometry">
            <mxPoint x="1050" y="310" as="sourcePoint" />
            <mxPoint x="1280" y="240" as="targetPoint" />
          </mxGeometry>
        </mxCell>
        <mxCell id="IQQhD9iPlCZPvFbMamsm-99" value="Уточнение данных,если типы отходов некореектные" style="text;html=1;align=center;verticalAlign=middle;whiteSpace=wrap;rounded=0;" parent="1" vertex="1">
          <mxGeometry x="831.5" y="839.75" width="160" height="30" as="geometry" />
        </mxCell>
        <mxCell id="IQQhD9iPlCZPvFbMamsm-100" value="" style="endArrow=classic;html=1;rounded=0;exitX=0;exitY=1;exitDx=0;exitDy=0;entryX=0.002;entryY=0.907;entryDx=0;entryDy=0;entryPerimeter=0;" parent="1" source="IQQhD9iPlCZPvFbMamsm-99" target="IQQhD9iPlCZPvFbMamsm-2" edge="1">
          <mxGeometry width="50" height="50" relative="1" as="geometry">
            <mxPoint x="940" y="900" as="sourcePoint" />
            <mxPoint x="330" y="710" as="targetPoint" />
            <Array as="points">
              <mxPoint x="1000" y="870" />
              <mxPoint x="1000" y="1000" />
              <mxPoint x="330" y="1000" />
              <mxPoint x="330" y="701" />
            </Array>
          </mxGeometry>
        </mxCell>
        <mxCell id="IQQhD9iPlCZPvFbMamsm-101" value="Ошибки, возникшие на этапе сортировки" style="text;html=1;align=center;verticalAlign=middle;whiteSpace=wrap;rounded=0;" parent="1" vertex="1">
          <mxGeometry x="1322" y="983" width="140" height="30" as="geometry" />
        </mxCell>
        <mxCell id="IQQhD9iPlCZPvFbMamsm-102" value="" style="endArrow=classic;html=1;rounded=0;exitX=0;exitY=1;exitDx=0;exitDy=0;entryX=0.5;entryY=0;entryDx=0;entryDy=0;" parent="1" source="IQQhD9iPlCZPvFbMamsm-101" target="IQQhD9iPlCZPvFbMamsm-21" edge="1">
          <mxGeometry width="50" height="50" relative="1" as="geometry">
            <mxPoint x="1322" y="1019" as="sourcePoint" />
            <mxPoint x="770" y="685" as="targetPoint" />
            <Array as="points">
              <mxPoint x="1560" y="1013" />
              <mxPoint x="1560" y="680" />
              <mxPoint x="785" y="680" />
            </Array>
          </mxGeometry>
        </mxCell>
        <mxCell id="IQQhD9iPlCZPvFbMamsm-103" value="Информация о несоответсвии датчиков с отчётностью" style="text;html=1;align=center;verticalAlign=middle;whiteSpace=wrap;rounded=0;" parent="1" vertex="1">
          <mxGeometry x="197" y="660" width="174" height="30" as="geometry" />
        </mxCell>
        <mxCell id="IQQhD9iPlCZPvFbMamsm-105" value="" style="endArrow=classic;html=1;rounded=0;entryX=0;entryY=0.75;entryDx=0;entryDy=0;" parent="1" edge="1">
          <mxGeometry width="50" height="50" relative="1" as="geometry">
            <mxPoint x="120" y="690" as="sourcePoint" />
            <mxPoint x="390" y="690" as="targetPoint" />
          </mxGeometry>
        </mxCell>
        <mxCell id="kxExPw45GxoC2lvAGK7E-3" value="" style="endArrow=none;html=1;rounded=0;" parent="1" edge="1">
          <mxGeometry width="50" height="50" relative="1" as="geometry">
            <mxPoint x="669" y="630" as="sourcePoint" />
            <mxPoint x="260" y="630" as="targetPoint" />
            <Array as="points">
              <mxPoint x="690" y="630" />
              <mxPoint x="690" y="480" />
              <mxPoint x="250" y="480" />
              <mxPoint x="250" y="630" />
            </Array>
          </mxGeometry>
        </mxCell>
      </root>
    </mxGraphModel>
  </diagram>
</mxfile>
